<?xml version="1.0" encoding="utf-8"?>

<!DOCTYPE svg PUBLIC "-//W3C//DTD SVG 1.1//EN" "http://www.w3.org/Graphics/SVG/1.1/DTD/svg11.dtd">
<svg version="1.1" id="Layer_1" xmlns="http://www.w3.org/2000/svg" xmlns:xlink="http://www.w3.org/1999/xlink" x="0px" y="0px"
	 viewBox="0 0 1674 1674" enable-background="new 0 0 1674 1674" xml:space="preserve">
<g>
	<g>
		<polygon points="866.7749,116.3399 557.5076,727.3405 666.4422,51.2478 		"/>
	</g>
	<g>
		<polygon points="1088.0138,160.8124 605.0736,646.3397 917.6006,37 		"/>
	</g>
	<g>
		<polygon points="1284.6818,271.4749 675.3422,584.002 1160.8694,101.0618 		"/>
	</g>
	<g>
		<polygon points="1437.5276,437.495 761.4349,546.4296 1372.4355,237.1623 		"/>
	</g>
	<g>
		<polygon points="1531.5895,642.6214 854.9246,537.3002 1531.5895,431.9791 		"/>
	</g>
	<g>
		<polygon points="1557.6602,866.7749 946.6595,557.5076 1622.7522,666.4422 		"/>
	</g>
	<g>
		<polygon points="1513.1876,1088.0138 1027.6604,605.0736 1637,917.6006 		"/>
	</g>
	<g>
		<polygon points="1402.525,1284.6818 1089.9979,675.3422 1572.9382,1160.8694 		"/>
	</g>
	<g>
		<polygon points="1236.505,1437.5276 1127.5704,761.4349 1436.8378,1372.4355 		"/>
	</g>
	<g>
		<polygon points="1031.3787,1531.5895 1136.6997,854.9246 1242.0209,1531.5895 		"/>
	</g>
	<g>
		<polygon points="807.2251,1557.6602 1116.4924,946.6595 1007.5578,1622.7522 		"/>
	</g>
	<g>
		<polygon points="585.9861,1513.1876 1068.9264,1027.6604 756.3994,1637 		"/>
	</g>
	<g>
		<polygon points="389.3182,1402.525 998.6578,1089.9979 513.1306,1572.9382 		"/>
	</g>
	<g>
		<polygon points="236.4725,1236.505 912.5651,1127.5704 301.5645,1436.8378 		"/>
	</g>
	<g>
		<polygon points="142.4105,1031.3787 819.0754,1136.6997 142.4105,1242.0209 		"/>
	</g>
	<g>
		<polygon points="116.3399,807.2251 727.3405,1116.4924 51.2478,1007.5578 		"/>
	</g>
	<g>
		<polygon points="160.8124,585.9861 646.3397,1068.9264 37,756.3994 		"/>
	</g>
	<g>
		<polygon points="271.4749,389.3182 584.002,998.6578 101.0618,513.1306 		"/>
	</g>
	<g>
		<polygon points="437.495,236.4725 546.4296,912.5651 237.1623,301.5645 		"/>
	</g>
	<g>
		<polygon points="642.6214,142.4105 537.3002,819.0754 431.9791,142.4105 		"/>
	</g>
</g>
</svg>
